<svg width="18" height="19" viewBox="0 0 18 19" fill="none" xmlns="http://www.w3.org/2000/svg">
<g clip-path="url(#clip0_1587_100)">
<path d="M5.25 13.6406C4.425 13.6406 3.7575 14.3156 3.7575 15.1406C3.7575 15.9656 4.425 16.6406 5.25 16.6406C6.075 16.6406 6.75 15.9656 6.75 15.1406C6.75 14.3156 6.075 13.6406 5.25 13.6406ZM0.75 1.64062V3.14063H2.25L4.95 8.83313L3.9375 10.6706C3.8175 10.8806 3.75 11.1281 3.75 11.3906C3.75 12.2156 4.425 12.8906 5.25 12.8906H14.25V11.3906H5.565C5.46 11.3906 5.3775 11.3081 5.3775 11.2031L5.4 11.1131L6.075 9.89063H11.6625C12.225 9.89063 12.72 9.58313 12.975 9.11813L15.66 4.25063C15.72 4.14563 15.75 4.01813 15.75 3.89063C15.75 3.47813 15.4125 3.14063 15 3.14063H3.9075L3.2025 1.64062H0.75ZM12.75 13.6406C11.925 13.6406 11.2575 14.3156 11.2575 15.1406C11.2575 15.9656 11.925 16.6406 12.75 16.6406C13.575 16.6406 14.25 15.9656 14.25 15.1406C14.25 14.3156 13.575 13.6406 12.75 13.6406Z" fill="white"/>
</g>
<defs>
<clipPath id="clip0_1587_100">
<rect width="18" height="18" fill="white" transform="translate(0 0.140625)"/>
</clipPath>
</defs>
</svg>
