<svg width="92" height="53" viewBox="0 0 92 53" fill="none" xmlns="http://www.w3.org/2000/svg">
<path d="M1 24.6231C8.35593 29.4353 25.2034 36.1722 33.7458 24.6231C44.4237 10.1868 38.0169 4.93719 53.322 4.06226C68.6271 3.18733 77.1695 11.4992 85 1" stroke="#0085FF"/>
<path d="M4 33.6231C11.3559 38.4353 28.2034 45.1722 36.7458 33.6231C47.4237 19.1868 41.0169 13.9372 56.322 13.0623C71.6271 12.1873 80.1695 20.4992 88 10" stroke="#0085FF"/>
<path d="M7 45.6231C14.3559 50.4353 31.2034 57.1722 39.7458 45.6231C50.4237 31.1868 44.0169 25.9372 59.322 25.0623C74.6271 24.1873 83.1695 32.4992 91 22" stroke="#0085FF"/>
</svg>
