<svg width="12" height="18" viewBox="0 0 12 18" fill="none" xmlns="http://www.w3.org/2000/svg">
<path d="M5.99935 16.4539C5.88378 16.3162 5.7513 16.1563 5.60553 15.9767C5.06724 15.3135 4.35062 14.3855 3.63533 13.3254C2.91875 12.2633 2.21172 11.0806 1.68588 9.9068C1.15611 8.72429 0.832682 7.59981 0.832682 6.64095C0.832682 3.78414 3.14254 1.47428 5.99935 1.47428C8.85616 1.47428 11.166 3.78414 11.166 6.64095C11.166 7.59981 10.8426 8.72429 10.3128 9.9068C9.78697 11.0806 9.07995 12.2633 8.36337 13.3254C7.64807 14.3855 6.93145 15.3135 6.39317 15.9767C6.2474 16.1563 6.11492 16.3162 5.99935 16.4539ZM3.24935 6.64095C3.24935 8.15914 4.48116 9.39095 5.99935 9.39095C7.51754 9.39095 8.74935 8.15914 8.74935 6.64095C8.74935 5.12276 7.51754 3.89095 5.99935 3.89095C4.48116 3.89095 3.24935 5.12276 3.24935 6.64095Z" stroke="#0085FF" stroke-width="1.33333"/>
</svg>
