<svg width="22" height="23" viewBox="0 0 22 23" fill="none" xmlns="http://www.w3.org/2000/svg">
<g clip-path="url(#clip0_1587_108)">
<path d="M14.2083 12.974H13.4842L13.2275 12.7265C14.1258 11.6815 14.6667 10.3248 14.6667 8.84896C14.6667 5.55813 11.9992 2.89062 8.70833 2.89062C5.4175 2.89062 2.75 5.55813 2.75 8.84896C2.75 12.1398 5.4175 14.8073 8.70833 14.8073C10.1842 14.8073 11.5408 14.2665 12.5858 13.3681L12.8333 13.6248V14.349L17.4167 18.9231L18.7825 17.5573L14.2083 12.974ZM8.70833 12.974C6.42583 12.974 4.58333 11.1315 4.58333 8.84896C4.58333 6.56646 6.42583 4.72396 8.70833 4.72396C10.9908 4.72396 12.8333 6.56646 12.8333 8.84896C12.8333 11.1315 10.9908 12.974 8.70833 12.974Z" fill="#C9C9C9"/>
</g>
<defs>
<clipPath id="clip0_1587_108">
<rect width="22" height="22" fill="white" transform="translate(0 0.140625)"/>
</clipPath>
</defs>
</svg>
