<svg width="448" height="214" viewBox="0 0 448 214" fill="none" xmlns="http://www.w3.org/2000/svg">
<path d="M98 49L80.5 32.5V72H141V54H98V49Z" fill="white"/>
<path d="M80.5 0V23.5L102.5 45H141V27H109.5L100.5 17.5H141L141.5 0H80.5Z" fill="white"/>
<path d="M70.7051 57.4492L58.2051 45.4492C35.8053 67.8492 18.9813 49.5 18.9813 35.5L4.20509 22.9492C-1.51191 38.5 5.33031 52.7546 8.48875 57.5C26.4595 84.5 60.5384 70.6159 70.7051 57.4492Z" fill="white"/>
<path d="M70.709 17.448C43.909 -14.152 17.209 4.28133 7.20898 17.448L21.209 29.4492C36.009 9.84922 52.0423 21.2826 58.209 29.4492L70.709 17.448Z" fill="white"/>
<path d="M444.705 57.4492L432.205 45.4492C409.805 67.8492 392.981 49.5 392.981 35.5L378.205 22.9492C372.488 38.5 379.33 52.7546 382.489 57.5C400.459 84.5 434.538 70.6159 444.705 57.4492Z" fill="white"/>
<path d="M444.709 17.448C417.909 -14.152 391.209 4.28133 381.209 17.448L395.209 29.4492C410.009 9.84922 426.042 21.2826 432.209 29.4492L444.709 17.448Z" fill="white"/>
<path fill-rule="evenodd" clip-rule="evenodd" d="M243.5 46H264.5C267.667 47.3333 272.1 51.5 264.5 57.5H243.5L226 40V72.5H272.5C287 72.5 297 55.7 283 36.5C291 29 291.333 0.666667 271 0H226V30L243.5 46ZM250 26.6757H265.037C272.051 25.6143 272.051 16.0614 265.037 15H245V16.5V23L250 26.6757Z" fill="white"/>
<path d="M317 36.5L299.5 20V73H317L348 42V73H366V0L317 46V36.5Z" fill="white"/>
<path d="M299.5 0.5V10.5L317 26V0.5H299.5Z" fill="white"/>
<path d="M441.319 94H6.46282C4.9235 94 3.96122 95.6661 4.73045 96.9994L17.4228 118.999C17.7799 119.619 18.4404 120 19.1551 120H430.742C431.511 120 432.212 119.559 432.545 118.867L443.122 96.8666C443.76 95.5388 442.793 94 441.319 94Z" fill="#0085FF"/>
<path d="M333.5 190L316 173.5V213H376.5V195H333.5V190Z" fill="white"/>
<path d="M316 141V164.5L338 186H376.5V168H345L336 158.5H376.5L377 141H316Z" fill="white"/>
<path d="M227.746 198.449L215.246 186.449C192.846 208.849 176.022 190.5 176.022 176.5L161.246 163.949C155.529 179.5 162.371 193.755 165.53 198.5C183.5 225.5 217.579 211.616 227.746 198.449Z" fill="white"/>
<path d="M227.75 158.448C200.95 126.848 174.25 145.281 164.25 158.448L178.25 170.449C193.05 150.849 209.083 162.283 215.25 170.449L227.75 158.448Z" fill="white"/>
<path d="M262.5 168L279.5 184L280.5 185V159H306.5V142H237V159H262.5V168Z" fill="white"/>
<path d="M262.5 175L280.5 193V212H262.5V175Z" fill="white"/>
<path d="M18 190L0 172.5V212H18V190Z" fill="white"/>
<path d="M0 142V165L35.5 199.5L53.5 181.5V212H70V142H67L35.5 174.5L3 142H0Z" fill="white"/>
<path d="M107 164.5L78 212H97L108.5 193L124 191L107 164.5Z" fill="white"/>
<path d="M120.5 143L111 158L144.5 212H162.5L120.5 143Z" fill="white"/>
<path fill-rule="evenodd" clip-rule="evenodd" d="M193.381 0L156 0.000192394V26.701L171.823 43.5126H193.381C212.171 43.5126 216.324 27.3603 216.324 21.7564C216.324 5.9337 203.468 0 193.381 0ZM194.037 27.0263H183.017L174 16.8506V15.3506H194.037C201.051 16.412 201.051 25.9648 194.037 27.0263ZM156.973 35.3778L174.486 52.8913V72.3507H156V34.4048L156.973 35.3778Z" fill="white"/>
<path fill-rule="evenodd" clip-rule="evenodd" d="M424.381 141L387 141V167.701L402.823 184.513H424.381C443.171 184.513 447.324 168.36 447.324 162.756C447.324 146.934 434.468 141 424.381 141ZM425.037 168.026H414.017L405 157.851V156.351H425.037C432.051 157.412 432.051 166.965 425.037 168.026ZM387.973 176.378L405.486 193.891V213.351H387V175.405L387.973 176.378Z" fill="white"/>
</svg>
